<svg width="190" height="41" viewBox="0 0 190 41" fill="none" xmlns="http://www.w3.org/2000/svg">
<path d="M19.9335 1.86156C23.0208 1.86156 25.5011 2.15599 27.3743 2.74486C29.2823 3.29909 30.6005 4.28631 31.329 5.70652C32.0574 7.09209 32.2656 9.04921 31.9534 11.5779C31.6065 14.0719 30.8953 15.9424 29.82 17.1895C28.7793 18.4365 27.0448 19.1639 24.6165 19.3717L24.5645 19.6835C27.3397 19.926 29.2129 20.9132 30.1842 22.6451C31.1555 24.3425 31.433 26.646 31.0168 29.5557C30.6699 31.9458 29.9934 33.799 28.9874 35.1153C27.9814 36.3969 26.5418 37.2976 24.6686 37.8172C22.7953 38.3021 20.4018 38.5446 17.4878 38.5446C14.9208 38.5446 12.7007 38.5273 10.8275 38.4926C8.95423 38.4926 7.23709 38.458 5.67607 38.3887C4.11504 38.3194 2.51932 38.2328 0.888916 38.1289L5.93624 2.27723C7.35851 2.13867 8.74609 2.05208 10.099 2.01743C11.4866 1.94816 12.9609 1.91352 14.5219 1.91352C16.1176 1.87888 17.9215 1.86156 19.9335 1.86156ZM19.5692 8.7721C18.6326 8.7721 17.748 8.7721 16.9155 8.7721C16.0829 8.7721 15.3024 8.7721 14.5739 8.7721L13.4812 16.514H17.8521C19.4825 16.514 20.6099 16.2369 21.2343 15.6826C21.8934 15.1284 22.3617 13.968 22.6392 12.2014C22.8127 10.8505 22.6739 9.94984 22.223 9.49953C21.8067 9.01458 20.9221 8.7721 19.5692 8.7721ZM17.6439 22.5932H12.5966L11.3478 31.634C12.7007 31.634 14.1403 31.634 15.6666 31.634C16.9502 31.634 17.9735 31.5128 18.7367 31.2703C19.4998 31.0279 20.0549 30.5602 20.4018 29.8674C20.7833 29.1747 21.0782 28.1874 21.2863 26.9058C21.5292 25.1392 21.4078 23.9788 20.9221 23.4245C20.4365 22.8703 19.3437 22.5932 17.6439 22.5932Z" fill="white"/>
<path d="M50.4483 11.5779C53.8479 11.5779 56.4669 11.9416 58.3055 12.669C60.1787 13.3618 61.4275 14.401 62.0519 15.7866C62.711 17.1721 62.8845 18.8868 62.5723 20.9305C62.2254 23.286 61.1847 24.914 59.4502 25.8146C57.7504 26.6806 55.2008 27.2349 51.8012 27.4773L44.6725 28.0489C44.7072 29.5037 45.0714 30.439 45.7652 30.8547C46.459 31.2357 47.5517 31.4262 49.0434 31.4262C49.8065 31.4262 50.7952 31.4089 52.0093 31.3742C53.2581 31.305 54.5416 31.2357 55.8599 31.1664C57.2127 31.0625 58.3922 30.9586 59.3982 30.8547L60.0746 36.6741C58.3402 37.4361 56.3975 37.973 54.2468 38.2848C52.1307 38.5965 50.1014 38.7524 48.1588 38.7524C44.447 38.7524 41.5851 38.2328 39.5731 37.1936C37.5611 36.1198 36.2256 34.5611 35.5665 32.5173C34.9074 30.4736 34.7339 27.945 35.0462 24.9313C35.4624 21.2942 36.295 18.5231 37.5438 16.6179C38.7926 14.6781 40.4924 13.3618 42.6432 12.669C44.7939 11.9416 47.3956 11.5779 50.4483 11.5779ZM50.3963 17.8649C49.3209 17.8649 48.4536 18.0208 47.7945 18.3326C47.1701 18.6097 46.6498 19.1293 46.2335 19.8913C45.8519 20.6534 45.5224 21.7618 45.2449 23.2167L49.6157 22.7491C50.8299 22.6451 51.7491 22.4373 52.3736 22.1256C52.998 21.8138 53.3796 21.1037 53.5183 19.9952C53.6571 19.0946 53.501 18.5057 53.05 18.2286C52.599 17.9515 51.7145 17.8303 50.3963 17.8649Z" fill="white"/>
<path d="M78.0329 11.5779C79.3511 11.6125 80.7908 11.6818 82.3518 11.7857C83.9128 11.855 85.4218 11.9762 86.8788 12.1494C88.3357 12.3226 89.5672 12.5131 90.5732 12.721L89.7927 18.2806C88.0929 18.2806 86.3931 18.2806 84.6933 18.2806C83.0282 18.246 81.3978 18.2286 79.8021 18.2286C77.8942 18.2286 76.6107 18.2806 75.9516 18.3845C75.2925 18.4538 74.9282 18.7309 74.8589 19.2159C74.7895 19.6662 74.9456 20.0126 75.3272 20.255C75.7434 20.4975 76.4719 20.7919 77.5126 21.1383L83.5486 23.0089C85.6299 23.6324 87.1563 24.5849 88.1276 25.8666C89.1336 27.1483 89.5152 28.8456 89.2723 30.9586C88.9948 33.1755 88.3184 34.8382 87.243 35.9466C86.1676 37.0551 84.7107 37.7825 82.8721 38.1289C81.0336 38.5099 78.8655 38.7005 76.3678 38.7005C74.564 38.7005 72.6561 38.6312 70.6441 38.4926C68.6668 38.3541 66.3946 38.077 63.8276 37.6613L64.6601 32.0497C65.1805 32.0844 65.9263 32.1017 66.8976 32.1017C67.8689 32.1017 68.9096 32.1017 70.0197 32.1017C71.1644 32.1017 72.2398 32.1017 73.2458 32.1017C75.119 32.1017 76.5413 32.067 77.5126 31.9978C78.4839 31.9285 79.1604 31.8072 79.5419 31.634C79.9235 31.4262 80.1317 31.1491 80.1663 30.8027C80.2357 30.3524 80.0623 30.0233 79.646 29.8155C79.2644 29.6076 78.4666 29.3132 77.2524 28.9322L71.4246 27.0097C69.1351 26.2823 67.5567 25.2085 66.6895 23.7882C65.8569 22.3334 65.5794 20.5668 65.8569 18.4884C66.0998 16.9643 66.6201 15.7 67.418 14.6954C68.2505 13.6562 69.5167 12.8769 71.2165 12.3573C72.9162 11.8377 75.1884 11.5779 78.0329 11.5779Z" fill="white"/>
<path d="M103.274 12.3053L103.378 17.1375C105.113 15.4055 106.986 14.0546 108.998 13.0847C111.044 12.0802 113.022 11.5779 114.93 11.5779C117.08 11.5779 118.798 12.2014 120.081 13.4484C121.399 14.6954 121.885 16.5313 121.538 18.9561L118.832 38.1289H109.362L111.652 21.9697C111.79 21.0344 111.738 20.3936 111.495 20.0472C111.253 19.6662 110.732 19.5103 109.934 19.5796C109.137 19.6142 108.252 19.8567 107.281 20.307C106.344 20.7227 105.217 21.4328 103.898 22.4373L101.713 38.1289H92.2428L95.8331 12.3053H103.274Z" fill="white"/>
<path d="M135.866 0.666504C137.912 0.666504 138.814 1.65372 138.572 3.62816L138.207 6.38199C137.964 8.11395 136.924 8.97994 135.085 8.97994H131.339C129.327 8.97994 128.442 7.99272 128.685 6.01828L129.049 3.26445C129.223 1.53249 130.246 0.666504 132.119 0.666504H135.866ZM137.219 12.3053L133.628 38.1289H124.21L127.8 12.3053H137.219Z" fill="white"/>
<path d="M153.714 1.75764L151.685 16.6699C151.477 17.7783 151.199 18.8521 150.852 19.8913C150.506 20.8959 150.072 21.9177 149.552 22.9569C151.841 21.8138 153.87 20.307 155.64 18.4365C157.409 16.5313 158.554 14.4876 159.074 12.3053H168.804C168.076 15.215 166.914 17.6571 165.318 19.6315C163.757 21.606 161.97 23.2687 159.958 24.6196C160.583 25.1045 161.103 25.6414 161.519 26.2303C161.936 26.7845 162.283 27.3734 162.56 27.9969L167.347 38.1289H157.617L153.09 28.1008C152.535 28.3087 151.98 28.5165 151.425 28.7243C150.87 28.8975 150.332 29.0707 149.812 29.2439C149.812 29.5903 149.794 29.9021 149.76 30.1792L148.615 38.1289H139.145L144.244 1.75764H153.714Z" fill="white"/>
<path d="M189.778 34.1716C189.778 37.7587 186.866 40.6665 183.274 40.6665C179.681 40.6665 176.769 37.7587 176.769 34.1716C176.769 30.5846 179.681 27.6768 183.274 27.6768C186.866 27.6768 189.778 30.5846 189.778 34.1716Z" fill="white"/>
</svg>
