<svg width="130" height="23" viewBox="0 0 130 23" fill="none" xmlns="http://www.w3.org/2000/svg">
<path d="M23.4118 9.30403L15.1472 8.76068L12.0348 0.941345L8.92229 8.76068L0.666748 9.30403L6.99868 14.6805L4.92088 22.8363L12.0348 18.3396L19.1487 22.8363L17.0709 14.6805L23.4118 9.30403Z" fill="#E79331"/>
<path d="M49.9477 9.30422L41.6831 8.76087L38.5707 0.941528L35.4582 8.76087L27.2026 9.30422L33.5346 14.6807L31.4568 22.8364L38.5707 18.3398L45.6846 22.8364L43.6068 14.6807L49.9477 9.30422Z" fill="#E79331"/>
<path d="M76.4836 9.30403L68.219 8.76068L65.1065 0.941345L61.9941 8.76068L53.7385 9.30403L60.0705 14.6805L57.9927 22.8363L65.1065 18.3396L72.2205 22.8363L70.1427 14.6805L76.4836 9.30403Z" fill="#E79331"/>
<path d="M103.02 9.30403L94.7549 8.76068L91.6424 0.941345L88.53 8.76068L80.2744 9.30403L86.6063 14.6805L84.5285 22.8363L91.6424 18.3396L98.7564 22.8363L96.6786 14.6805L103.02 9.30403Z" fill="#E79331"/>
<path d="M129.556 9.30403L121.291 8.76068L118.179 0.941345L115.066 8.76068L106.811 9.30403L113.142 14.6805L111.065 22.8363L118.179 18.3396L125.292 22.8363L123.215 14.6805L129.556 9.30403Z" fill="#2F1319"/>
</svg>
